<svg xmlns="http://www.w3.org/2000/svg" width="295.08" height="295.08" viewBox="0 0 295.08 295.08">
  <defs>
    <style>
      .cls-1 {
        fill: #fff;
      }
    </style>
  </defs>
  <g id="Layer_2" data-name="Layer 2">
    <g id="Layer_1-2" data-name="Layer 1">
      <g id="Layer_2-2" data-name="Layer 2">
        <g id="Layer_1-2-2" data-name="Layer 1-2">
          <g>
            <path class="cls-1" d="M225.66,52.69a17.31,17.31,0,1,0,.07,0Z"/>
            <path class="cls-1" d="M148.75,74.87a72.67,72.67,0,1,0,72.67,72.67A72.68,72.68,0,0,0,148.75,74.87Zm0,119.22a46.55,46.55,0,1,1,46.55-46.55A46.55,46.55,0,0,1,148.75,194.09Z"/>
            <path class="cls-1" d="M206.44,295.08H88.63A88.73,88.73,0,0,1,0,206.44V88.63A88.73,88.73,0,0,1,88.63,0H206.44a88.74,88.74,0,0,1,88.64,88.63V206.44A88.75,88.75,0,0,1,206.44,295.08ZM88.63,27.76A60.94,60.94,0,0,0,27.76,88.63V206.44a60.93,60.93,0,0,0,60.87,60.88H206.44a61,61,0,0,0,60.88-60.88V88.63a61,61,0,0,0-60.88-60.87Z"/>
          </g>
        </g>
      </g>
    </g>
  </g>
</svg>
