<svg xmlns="http://www.w3.org/2000/svg" width="294.96" height="295.14" viewBox="0 0 294.96 295.14">
  <defs>
    <style>
      .cls-1 {
        fill: #fff;
      }
    </style>
  </defs>
  <g id="Layer_2" data-name="Layer 2">
    <g id="Layer_1-2" data-name="Layer 1">
      <g id="Layer_2-2" data-name="Layer 2">
        <g id="Layer_1-2-2" data-name="Layer 1-2">
          <path class="cls-1" d="M147.51,0A147.49,147.49,0,0,0,87.32,282.15c-.18-4.15-.35-8.29-.21-12.45.47-14.36,2.25-19.28,20.74-97.07a5.32,5.32,0,0,0-.43-3.24C103,157.44,102.12,145.32,106,133c8.37-26.53,38.45-28.57,43.71-6.67,3.24,13.54-5.33,31.25-11.91,57.44-5.45,21.62,20,37,41.73,21.2,20.05-14.54,27.83-49.41,26.35-74.12C203,81.63,149,71,114.66,86.84,75.37,105,66.44,153.72,84.17,176c2.25,2.84,4,4.57,3.24,7.44-1.14,4.45-2.15,8.94-3.38,13.38-.91,3.3-3.67,4.5-7,3.14a40.2,40.2,0,0,1-16.41-12.29c-15.07-18.66-19.37-55.56.55-86.8,22.07-34.61,63.11-48.61,100.59-44.36,44.77,5.09,73.06,35.67,78.36,70.37,2.42,15.81.68,54.79-21.51,82.33-25.52,31.66-66.9,33.76-86,14.33-1.48-1.49-2.65-3.24-4.09-5-.21.71-.41,1.31-.57,1.92-9.16,35.91-10.18,43.88-19.59,60.55-1.46,2.56-3.06,5-4.63,7.49A147.55,147.55,0,1,0,147.51,0Z"/>
        </g>
      </g>
    </g>
  </g>
</svg>
