<svg xmlns="http://www.w3.org/2000/svg" width="358.5" height="295.08" viewBox="0 0 358.5 295.08">
  <defs>
    <style>
      .cls-1 {
        fill: #fff;
      }
    </style>
  </defs>
  <g id="Layer_2" data-name="Layer 2">
    <g id="Layer_1-2" data-name="Layer 1">
      <g id="Layer_2-2" data-name="Layer 2">
        <g id="Layer_1-2-2" data-name="Layer 1-2">
          <path class="cls-1" d="M357,35.37c-11.39,5.15-24,8.27-36.26,10.34,5.83-1,14.39-11.54,17.83-15.81A66.46,66.46,0,0,0,350.59,8c.32-.63.55-1.41-.08-1.89a2.11,2.11,0,0,0-1.92.16,184,184,0,0,1-43,16.45,2.88,2.88,0,0,1-3-.78,34,34,0,0,0-3.75-3.84A75.69,75.69,0,0,0,278.06,5.29,72.65,72.65,0,0,0,246.12.15a76.56,76.56,0,0,0-30.3,8.56,78.27,78.27,0,0,0-24.45,20,75.45,75.45,0,0,0-14.59,29.23c-2.51,10.29-2.31,20.47-.77,30.87.23,1.73.07,2-1.49,1.73-59-8.79-108-29.92-147.7-75.19-1.73-2-2.66-2-4.08.15-17.39,26-8.95,67.89,12.77,88.5,2.9,2.74,5.87,5.48,9.08,8-1.17.24-15.62-1.33-28.51-8-1.72-1.09-2.59-.47-2.74,1.49a45.18,45.18,0,0,0,.47,8.46c3.33,26.42,21.63,50.85,46.68,60.38A44.31,44.31,0,0,0,70,177.2c-5.71,1.25-11.59,2.14-27.95.86-2-.39-2.82.63-2,2.58,12.3,33.53,38.85,43.51,58.73,49.19,2.67.47,5.33.47,8,1.09-.16.24-.32.24-.48.47-6.59,10.06-29.45,17.54-40.11,21.26-19.36,6.77-40.45,9.81-60.91,7.8-3.28-.48-4-.44-4.86,0s-.11,1.34.94,2.18c4.16,2.75,8.38,5.18,12.69,7.53a200.64,200.64,0,0,0,40.72,16.29c73.19,20.21,155.62,5.36,210.57-49.24,43.15-42.87,58.28-102,58.28-161.2,0-2.32,2.73-3.6,4.36-4.82,11.23-8.44,20.28-18.53,28.66-29.8a9,9,0,0,0,1.9-5.71v-.31C358.46,34.42,358.44,34.71,357,35.37Z"/>
        </g>
      </g>
    </g>
  </g>
</svg>
